<?xml version="1.0" encoding="utf-8"?>
<!-- Generator: Adobe Illustrator 21.0.2, SVG Export Plug-In . SVG Version: 6.00 Build 0)  -->
<svg version="1.1" id="Layer_1" xmlns="http://www.w3.org/2000/svg" xmlns:xlink="http://www.w3.org/1999/xlink" x="0px" y="0px"
	 width="185.6px" height="136.6px" viewBox="0 0 185.6 136.6" style="enable-background:new 0 0 185.6 136.6;" xml:space="preserve"
	>
<style type="text/css">
	.st0{fill:#FFFFFF;}
</style>
<g>
	<path class="st0" d="M185.6,85.8c-9.2,7.7-20.8,21.4-29,16.6c-0.4-0.2-2-6-2.7-12.4c-0.1-2-0.2-4.1-0.4-6.2
		c-0.7-8.6,0.4-12.7-2.2-17.6c-3.1-5.9-10.9-1.7-9.7,4.8c0.7,3.9,3.8,7.1,5.2,9.9c1.8,3.5,1.9,6.3,1.9,6.3c-1.2-2.4-2.8-3.3-5-2.7
		c-4.1,1.2-5.6,8.6-5.1,15.7c0,0,0,0-0.1,0c-0.4,7.3-1.5,11-2.8,11.4c-0.6,0.2-1,0-1.3-0.9c-0.7-2,0.5-7.5-0.7-11.1
		c-1.1-3.2-4.3-4.7-6.9-6c0-3.2-0.5-6.1-1.5-9.9L120,84c0,3.2,0.4,5.6,1,7.4c0.6,1.9,1.6,7.4,1.9,11.8c0.3,4.4-1,13.3-1.6,13.5
		c-0.3,0.1-0.6-0.3-0.9-1.1c-0.1-0.4-0.3-0.9-0.3-1.5c-0.9-5.9-1.7-12.4-2.2-20.4l-4.2,1.2l0.3,3.4c-1.2-2.4-3.8-3.2-6-2.6
		c-4.5,1.3-5.8,9.7-4.9,17.1c-0.9,5.4-2.2,9.7-3.4,10c-0.5,0.1-1.3,0-1.7-1.7c-1.2-4.7,0.9-12.5-0.5-17.9c-0.7-2.8-2.4-3.7-4.5-3.2
		c-2.6,0.6-4.5,3-5.7,6.4c0-1.2,0.9-2.4,0.8-3.4c2.5-5.3,6.4-8.3,4.9-18.6c-0.3-2.2-2.7-4.8-6.7-3.6c-1.8,0.5-3.4,2.6-3.8,5.4
		c-1,6-0.3,23.7-2.7,32.6c-1.5,5.7-6.8,9.8-8.4,10.4c-8.3,2.9-12.7,0.5-17.4-7.6c-2.1-3.6-3.5-8.1-4.1-12.5
		c3.8,1.8,8.4,2.8,14.9,1.4c8.8-1.8,16.8-18.6,6.1-24.2l0.1-0.1c-3.8-2.5-12.7-3.5-18.8,0.9c-4.4,3.1-6.9,7.3-8.2,11.9
		c-2.7-1.6-5.5-3-8.8-3.3c1.7-5.4,2.6-12.1,2.3-20.5c18.8-13.4,23.8-35.6,19.8-49.8c-2.6-9.3-9.1-15.2-18-12.7
		C28,15.8,21.5,24.8,27,61.9c0.7,5,1.3,9.6,1.6,13.8c-3.3,1.8-7,3.3-11.1,4.5c-7,1.9-12.8,2.2-17.5,1.4v4.9
		c5.3,0.3,11.5-0.3,18.6-2.2c3.7-1,7.1-2.3,10.2-3.7c0.2,6-0.1,10.9-1,14.9c-5-0.1-10.5,0.4-16.6,2.1c-6,1.6-9.6,4.6-11.2,7.7v7.5
		c2,3.6,7.1,5.7,14.3,3.7c7.5-2,14.6-6.4,19-15.6c3.8,0.6,6.8,2.4,9.7,4.4c-0.4,6.8,1.2,13.7,3.3,18.3c6.5,15.1,19.2,14,25.7,12.2
		c19.2-6.1,16.8-30,19.4-30.6c0.7-0.2,1.1,0.3,1.2,0.9c1.1,4.1-1.1,11.5,0.5,17.7c0.9,3.5,3.3,4.6,5.4,4.1c4-0.8,5.7-3.6,6.7-7.2
		c1.5,2.9,3.8,4.8,6.1,4.1c3.4-1,4.7-3.2,5-7.1c0.1,0.2,0.1,0.5,0.2,0.6c1.5,3,2.6,3.9,4.5,3.8c3.6-0.2,6.1-6.6,6.5-16.7v-0.1
		c0-0.4-0.6-5.6-0.6-5.6c0.8,1.2,1.7-0.1,2.3,2.8c0.6,3-0.4,7.7,0.8,11.4c0.8,2.5,2.3,3.5,5.2,3c2.8-0.4,4.1-2.4,4.9-6
		c1.1,3.1,3.7,3.4,5.9,2.9c4.2-0.9,5.1-3.8,5.9-6.7c0.1,0.2,0,0,0.1,0.2c2.1,3.1,9.5,2.6,13.7,0.9c7.4-2.9,13.6-11.7,19.9-17.1V85.8
		z M53.3,90.6c4.7-4.8,9.9-4.1,12.8-2.2c5.6,5.4,1.6,14.1-3.5,15.5c-5.2,1.4-9.1,0.1-12.7-1.9C49.9,97.1,51,92.9,53.3,90.6z
		 M14.8,111.7c-4.7,1.3-7.6-0.4-8.3-2.8c-0.8-2.8,1.3-6.6,7-8.2c4.6-1.2,9.1-1.5,13.4-1.2C24.5,106.6,20.2,110.3,14.8,111.7z
		 M40.7,16.4c3.7-1,6.9,2.8,8.6,8.8c3.1,11.3,1.2,30.6-11.8,43.5c-0.3-3-0.5-6.2-1.1-9.6C31.1,23.6,35.6,17.7,40.7,16.4z M88.1,84.8
		c0.3-0.1,0.6,0.2,0.7,0.7c0.8,2.9-0.6,8.7-1.5,12.3C87.1,87.6,87.2,85,88.1,84.8z M112.3,117.8c-0.6,0.7-1.5,0.1-2-1.7
		c-1.6-5.2-2.1-16,0.3-16.8c1.3-0.4,1.8,1,2.4,3.1C114.6,107.8,114.2,115.6,112.3,117.8z M147,107.9c-0.8,0.2-1.5-0.8-2.1-2.6
		c-1.6-5.1-1.9-16,0.6-16.8c1.3-0.4,2.3,0.9,2.9,3C150.1,96.8,149.7,107.1,147,107.9z M147,71.2c-0.7-4.9,0.9-4.2,1.6-0.2
		c0.6,3.6,1,7.2,1,7.2S147.4,74.3,147,71.2z"/>
	<path class="st0" d="M0,49.9c2.7-0.4,6-0.2,8,0.3l0.8-7.5c-2.9-0.6-5.7-0.7-8.8-0.3V49.9z"/>
	<path class="st0" d="M185.6,54.4v-9.1c-3.6-1.9-7.1-2-8.6-1.1c-0.2,0.1-0.2,0.1-0.2,0c-1.5-13.4-3.2-28.9-3.3-32.8l-7.5,2.3
		c0.6,7.9,4.4,32.3-0.1,33.8c-0.8,0.3-1.9,0.2-2.7-2.1c-1-3.2-1.4-7.1-1.9-11.9c-1-10.8-1.3-17.9-1.3-17.9l-7.7,2.4
		c0,0,0.2,6.8,1.3,17.8c0.1,0.9,0.2,1.8,0.3,2.7c-1.2,7.9-4.1,13.3-9,14.8c-4.2,1.3-6.9-2.1-8.4-6.8c-0.1-0.4-0.2-0.8-0.4-1.2
		c10.3-4.7,13.4-14,11.7-19.6c-1.1-3.6-4.3-5.8-8.9-4.4c-8.8,2.6-12.1,14.3-10.7,24.3c-1.3,9-3.3,14.4-6,15.2c-2.1,0.6-4-0.7-5.6-6
		c-0.8-2.5-1.4-5.7-2-9.3c2.5-4.9,6.3-14.5,7-26c0.2-2.7,0.3-8.9-1.1-13.6c-1.2-4.1-3.6-7-8.3-5.6c-5.3,1.5-8.4,12.2-6.6,33.3
		c0.6,6.6,1.3,12.5,2.3,17.4c-0.5,3.1-1.1,6.1-2,8.7l-0.1-0.3c-2.6-8.9-13.9-14.7-16.1-21.4c0.1-3.8-0.1-7.9-0.6-12.4l-6.5,0.7
		c-0.4,4.3,0,8,0.9,11.2c0.8,2.7,2,5.1,3.3,7.4c-0.6,4.3-1,8.6-1.4,11.6c-1.3,8.9-4.5,14.9-9.8,16.4c-4.2,1.1-6.9-2.3-8.2-7.1
		c-0.1-0.4-0.2-0.8-0.3-1.2C77.6,60.3,81,51.2,79.4,45.5c-1-3.7-4.1-6-8.7-4.7C60.4,43.4,57.1,58.5,60,69.4
		c2.1,7.5,7.1,13,15.1,10.9c9-2.4,11.4-11.9,13.1-23.6c0.3-2.7,0.4-5.4,0.7-8.3c3.6,5.1,7.7,9.2,9.1,14.1c0.8,2.9-0.1,4.7-2.4,5.3
		c-1.7,0.5-3,0.1-4.7-1.3l-4.6,5.1c2.2,2.9,6.3,4.1,10.7,2.9c7.6-2.1,10.8-8.7,12.6-16.5c2.5,7.7,6,11.4,11.3,9.9
		c4.8-1.4,7.3-6.3,8.9-15.5c2.6,6.5,7.6,10.8,14.9,8.6c6.3-1.9,9.1-7.1,10.7-14.1c0.1,0.2,0.1,0.3,0.2,0.5c1.7,5.3,4.6,8.6,9.4,7
		c2.5-0.8,4.1-2.8,5.1-5.4l0.6,5.6c-4.9,7.7-9.3,14-7.5,19.5c1.4,4.2,4.9,5.3,9,4c4.3-1.3,6.2-5.4,6.6-10.8c0.1-2,0-4.1-0.3-6.3
		l-1.3-10.8C177.5,49.9,181.9,50.6,185.6,54.4z M71.3,45.8c0.9-0.2,1.7,0.4,2,1.6c0.8,3-0.7,9.3-6.8,14.1
		C65.8,54.5,67.5,46.8,71.3,45.8z M114,40.4c-1.8-15.6-1.5-34.3,1-35c0.5-0.1,1.1,0.4,1.4,1.5C119.2,16.6,116.4,31.8,114,40.4z
		 M139.7,26.5c0.9-0.3,1.7,0.4,2.1,1.5c0.9,2.9-0.4,9.3-6.3,14.3C134.4,35.4,135.9,27.6,139.7,26.5z M170.9,73.8
		c-0.9,0.3-2-0.1-2.5-1.6c-1.2-3.8,0.4-7.7,3.1-12.4l0.9,9.1C172.7,71.5,172.4,73.3,170.9,73.8z"/>
</g>
</svg>
