<?xml version="1.0" encoding="utf-8"?>
<!-- Generator: Adobe Illustrator 21.0.2, SVG Export Plug-In . SVG Version: 6.00 Build 0)  -->
<svg version="1.1" id="Layer_1" xmlns="http://www.w3.org/2000/svg" xmlns:xlink="http://www.w3.org/1999/xlink" x="0px" y="0px"
	 width="187px" height="219px" viewBox="0 0 187 219" style="enable-background:new 0 0 187 219;" xml:space="preserve">
<g id="Logo_1_">
	<g>
		<defs>
			<rect id="SVGID_1_" x="1" y="0.4" width="185.6" height="218.3"/>
		</defs>
		<use xlink:href="#SVGID_1_"  style="overflow:visible;fill:#FC0480;"/>
		<clipPath id="SVGID_2_">
			<use xlink:href="#SVGID_1_"  style="overflow:visible;"/>
		</clipPath>
		<polyline style="clip-path:url(#SVGID_2_);fill:#FC0480;stroke:#0FACD1;stroke-miterlimit:10;" points="144.4,-7.4 -56.7,-7.4 
			-56.7,226.5 144.4,226.5 		"/>
	</g>
	<g>
		<defs>
			
				<rect id="SVGID_3_" x="-20.8" y="44" transform="matrix(0.9945 -0.1045 0.1045 0.9945 -10.9023 10.3847)" width="228.8" height="130.5"/>
		</defs>
		<clipPath id="SVGID_4_">
			<use xlink:href="#SVGID_3_"  style="overflow:visible;"/>
		</clipPath>
		<g style="clip-path:url(#SVGID_4_);">
			<defs>
				<rect id="SVGID_5_" x="1" y="0.4" width="185.6" height="218.3"/>
			</defs>
			<clipPath id="SVGID_6_">
				<use xlink:href="#SVGID_5_"  style="overflow:visible;"/>
			</clipPath>
			<g style="clip-path:url(#SVGID_6_);enable-background:new    ;">
				<g>
					<defs>
						<rect id="SVGID_7_" x="-23.9" y="39.3" width="237" height="140.4"/>
					</defs>
					<clipPath id="SVGID_8_">
						<use xlink:href="#SVGID_7_"  style="overflow:visible;"/>
					</clipPath>
					<g style="clip-path:url(#SVGID_8_);">
						<defs>
							<path id="SVGID_9_" d="M207.7,124.8c-2-1.6-7.3-4-10.8-2.9c1.4-8.2,1.3-6.6,1-12.9c-1-22.1-16.2-25.6-19.9-23.4
								c-0.2,0.1-0.2,0.1-0.2,0c-1.5-13.4-3.2-28.9-3.3-32.8l-7.5,2.3c0.6,7.9,4.4,32.3-0.1,33.8c-0.8,0.3-1.9,0.2-2.7-2.1
								c-1-3.2-1.4-7.1-1.9-11.9c-1-10.8-1.3-17.9-1.3-17.9l-7.7,2.4c0,0,0.2,6.8,1.3,17.8c0.1,0.9,0.2,1.8,0.3,2.7
								c-1.2,7.9-4.1,13.3-9,14.8c-4.2,1.3-6.9-2.1-8.4-6.8c-0.1-0.4-0.2-0.8-0.4-1.2c10.3-4.7,13.4-14,11.7-19.6
								c-1.1-3.6-4.3-5.8-8.9-4.4c-8.8,2.6-12.1,14.3-10.7,24.3c-1.3,9-3.3,14.4-6,15.2c-2.1,0.6-4-0.7-5.6-6
								c-0.8-2.5-1.4-5.7-2-9.3c2.5-4.9,6.3-14.5,7-26c0.2-2.7,0.3-8.9-1.1-13.6c-1.2-4.1-3.6-7-8.3-5.6c-5.3,1.5-8.4,12.2-6.6,33.3
								c0.6,6.6,1.3,12.5,2.3,17.4c-0.5,3.1-1.1,6.1-2,8.7l-0.1-0.3c-2.6-8.9-13.9-14.7-16.1-21.4c0.1-3.8-0.1-7.9-0.6-12.4
								l-6.5,0.7c-0.4,4.3,0,8,0.9,11.2c0.8,2.7,2,5.1,3.3,7.4c-0.6,4.3-1,8.6-1.4,11.6c-1.3,8.9-4.5,14.9-9.8,16.4
								c-4.2,1.1-6.9-2.3-8.2-7.1c-0.1-0.4-0.2-0.8-0.3-1.2c10.5-4.4,13.9-13.5,12.3-19.2c-1-3.7-4.1-6-8.7-4.7
								C61.4,84.7,58.1,99.8,61,110.7c2.1,7.5,7.1,13,15.1,10.9c9-2.4,11.4-11.9,13.1-23.6c0.3-2.7,0.4-5.4,0.7-8.3
								c3.6,5.1,7.7,9.2,9.1,14.1c0.8,2.9-0.1,4.7-2.4,5.3c-1.7,0.5-3,0.1-4.7-1.3l-4.6,5.1c2.2,2.9,6.3,4.1,10.7,2.9
								c7.6-2.1,10.8-8.7,12.6-16.5c2.5,7.7,6,11.4,11.3,9.9c4.8-1.4,7.3-6.3,8.9-15.5c2.6,6.5,7.6,10.8,14.9,8.6
								c6.3-1.9,9.1-7.1,10.7-14.1c0.1,0.2,0.1,0.3,0.2,0.5c1.7,5.3,4.6,8.6,9.4,7c2.5-0.8,4.1-2.8,5.1-5.4l0.6,5.6
								c-4.9,7.7-9.3,14-7.5,19.5c1.4,4.2,4.9,5.3,9,4c4.3-1.3,6.2-5.4,6.6-10.8c0.1-2,0-4.1-0.3-6.3l-1.3-10.8
								c0.6-0.5,13.3,2.2,13.8,18.3c0.3,9.5,0.3,9.5-1.5,14.4c-9.5,6.2-23.5,25.1-32.9,19.6c-0.4-0.2-2-6-2.7-12.4
								c-0.1-2-0.2-4.1-0.4-6.2c-0.7-8.6,0.4-12.7-2.2-17.6c-3.1-5.9-10.9-1.7-9.7,4.8c0.7,3.9,3.8,7.1,5.2,9.9
								c1.8,3.5,1.9,6.3,1.9,6.3c-1.2-2.4-2.8-3.3-5-2.7c-4.1,1.2-5.6,8.6-5.1,15.7c0,0,0,0-0.1,0c-0.4,7.3-1.5,11-2.8,11.4
								c-0.6,0.2-1,0-1.3-0.9c-0.7-2,0.5-7.5-0.7-11.1c-1.1-3.2-4.3-4.7-6.9-6c0-3.2-0.5-6.1-1.5-9.9l-5.3,0.2c0,3.2,0.4,5.6,1,7.4
								c0.6,1.9,1.6,7.4,1.9,11.8c0.3,4.4-1,13.3-1.6,13.5c-0.3,0.1-0.6-0.3-0.9-1.1c-0.1-0.4-0.3-0.9-0.3-1.5
								c-0.9-5.9-1.7-12.4-2.2-20.4l-4.2,1.2l0.3,3.4c-1.2-2.4-3.8-3.2-6-2.6c-4.5,1.3-5.8,9.7-4.9,17.1c-0.9,5.4-2.2,9.7-3.4,10
								c-0.5,0.1-1.3,0-1.7-1.7c-1.2-4.7,0.9-12.5-0.5-17.9c-0.7-2.8-2.4-3.7-4.5-3.2c-2.6,0.6-4.5,3-5.7,6.4c0-1.2,0.9-2.4,0.8-3.4
								c2.5-5.3,6.4-8.3,4.9-18.6c-0.3-2.2-2.7-4.8-6.7-3.6c-1.8,0.5-3.4,2.6-3.8,5.4c-1,6-0.3,23.7-2.7,32.6
								c-1.5,5.7-6.8,9.8-8.4,10.4l0,0c-8.3,2.9-12.7,0.5-17.4-7.6c-2.1-3.6-3.5-8.1-4.1-12.5c3.8,1.8,8.4,2.8,14.9,1.4
								c8.8-1.8,16.8-18.6,6.1-24.2l0.1-0.1c-3.8-2.5-12.7-3.5-18.8,0.9c-4.4,3.1-6.9,7.3-8.2,11.9c-2.7-1.6-5.5-3-8.8-3.3
								c1.7-5.4,2.6-12.1,2.3-20.5c18.8-13.4,23.8-35.6,19.8-49.8c-2.6-9.3-9.1-15.2-18-12.7c-11.3,3.1-17.8,12.1-12.3,49.2
								c0.7,5,1.3,9.6,1.6,13.8c-3.3,1.8-7,3.3-11.1,4.5c-19.1,5.2-29.7-1.7-32.1-10.2c-2.2-7.7,2.3-16.9,13.1-19.8
								c2.8-0.7,7.1-0.5,9.5,0l0.8-7.5c-3.9-0.8-7.8-0.8-12.2,0.3c-15.2,4.1-21.8,17.4-18.8,28.2c3.1,11.1,16.4,19.6,40.8,13
								c3.7-1,7.1-2.3,10.2-3.7c0.2,6-0.1,10.9-1,14.9c-5-0.1-10.5,0.4-16.6,2.1c-9.8,2.6-13.2,8.8-11.9,13.5
								c1.3,4.5,6.7,7.6,15,5.3c7.5-2,14.6-6.4,19-15.6c3.8,0.6,6.8,2.4,9.7,4.4c-0.4,6.8,1.2,13.7,3.3,18.3
								c6.5,15.1,19.2,14,25.7,12.2c19.2-6.1,16.8-30,19.4-30.6c0.7-0.2,1.1,0.3,1.2,0.9c1.1,4.1-1.1,11.5,0.5,17.7
								c0.9,3.5,3.3,4.6,5.4,4.1c4-0.8,5.7-3.6,6.7-7.2c1.5,2.9,3.8,4.8,6.1,4.1c3.4-1,4.7-3.2,5-7.1c0.1,0.2,0.1,0.5,0.2,0.6
								c1.5,3,2.6,3.9,4.5,3.8c3.6-0.2,6.1-6.6,6.5-16.7l0-0.1c0-0.4-0.6-5.6-0.6-5.6c0.8,1.2,1.7-0.1,2.3,2.8
								c0.6,3-0.4,7.7,0.8,11.4c0.8,2.5,2.3,3.5,5.2,3c2.8-0.4,4.1-2.4,4.9-6c1.1,3.1,3.7,3.4,5.9,2.9c4.2-0.9,5.1-3.8,5.9-6.7
								c0.1,0.2,0,0,0.1,0.2c2.1,3.1,9.5,2.6,13.7,0.9c8.3-3.3,15.1-14,22.3-18.9c-0.1,1.5,0.2,3.1,1,4.7c3.6,7.3,12.7,6.6,15.8,5
								C212.1,137.3,212.5,128.6,207.7,124.8z M72.3,87.1c0.9-0.2,1.7,0.4,2,1.6c0.8,3-0.7,9.3-6.8,14.1
								C66.8,95.8,68.5,88.1,72.3,87.1z M116,46.7c0.5-0.1,1.1,0.4,1.4,1.5c2.8,9.7,0,24.9-2.4,33.5C113.2,66.1,113.5,47.4,116,46.7
								z M140.7,67.8c0.9-0.3,1.7,0.4,2.1,1.5c0.9,2.9-0.4,9.3-6.3,14.3C135.4,76.7,136.9,68.9,140.7,67.8z M173.4,110.2
								c0.3,2.6,0,4.4-1.5,4.9c-0.9,0.3-2-0.1-2.5-1.6c-1.2-3.8,0.4-7.7,3.1-12.4L173.4,110.2z M89.1,126.1c0.3-0.1,0.6,0.2,0.7,0.7
								c0.8,2.9-0.6,8.7-1.5,12.3C88.1,128.9,88.2,126.3,89.1,126.1z M54.3,131.9c4.7-4.8,9.9-4.1,12.8-2.2
								c5.6,5.4,1.6,14.1-3.5,15.5c-5.2,1.4-9.1,0.1-12.7-1.9C50.9,138.4,52,134.2,54.3,131.9z M41.7,57.7c3.7-1,6.9,2.8,8.6,8.8
								c3.1,11.3,1.2,30.6-11.8,43.5c-0.3-3-0.5-6.2-1.1-9.6C32.1,64.9,36.6,59,41.7,57.7z M15.8,153c-4.7,1.3-7.6-0.4-8.3-2.8
								c-0.8-2.8,1.3-6.6,7-8.2c4.6-1.2,9.1-1.5,13.4-1.2C25.5,147.9,21.2,151.6,15.8,153z M113.3,159.1c-0.6,0.7-1.5,0.1-2-1.7
								c-1.6-5.2-2.1-16,0.3-16.8c1.3-0.4,1.8,1,2.4,3.1C115.6,149.1,115.2,156.9,113.3,159.1z M148,149.2c-0.8,0.2-1.5-0.8-2.1-2.6
								c-1.6-5.1-1.9-16,0.6-16.8c1.3-0.4,2.3,0.9,2.9,3C151.1,138.1,150.7,148.4,148,149.2z M148,112.5c-0.7-4.9,0.9-4.2,1.6-0.2
								c0.6,3.6,1,7.2,1,7.2S148.4,115.6,148,112.5z M204.2,136.3c-3.5,1.9-9.4-0.2-10.9-5.1c-0.4-1.1,0.3-2.6,0.9-4.1
								c2.9-2.8,8.8-1.9,11.4,1.1C207.6,130.3,207.7,134.4,204.2,136.3z"/>
						</defs>
						<use xlink:href="#SVGID_9_"  style="overflow:visible;fill-rule:evenodd;clip-rule:evenodd;fill:#FFFFFF;"/>
						<clipPath id="SVGID_10_">
							<use xlink:href="#SVGID_9_"  style="overflow:visible;"/>
						</clipPath>
						<g style="clip-path:url(#SVGID_10_);">
							<defs>
								<rect id="SVGID_11_" x="1" y="31.6" width="185.6" height="155.9"/>
							</defs>
							<clipPath id="SVGID_12_">
								<use xlink:href="#SVGID_11_"  style="overflow:visible;"/>
							</clipPath>
							
								<rect x="-28.6" y="36.2" transform="matrix(0.9945 -0.1045 0.1045 0.9945 -10.9023 10.3846)" style="clip-path:url(#SVGID_12_);fill:#FFE000;" width="244.4" height="146.1"/>
						</g>
					</g>
				</g>
			</g>
		</g>
	</g>
</g>
</svg>
